<?xml version="1.0" encoding="UTF-8" standalone="no"?>
<svg
   xmlns:dc="http://purl.org/dc/elements/1.1/"
   xmlns:cc="http://creativecommons.org/ns#"
   xmlns:rdf="http://www.w3.org/1999/02/22-rdf-syntax-ns#"
   xmlns:svg="http://www.w3.org/2000/svg"
   xmlns="http://www.w3.org/2000/svg"
   xmlns:sodipodi="http://sodipodi.sourceforge.net/DTD/sodipodi-0.dtd"
   xmlns:inkscape="http://www.inkscape.org/namespaces/inkscape"
   height="15.86218"
   width="14"
   id="svg4795"
   xml:space="preserve"
   viewBox="0 0 14 15.86218"
   y="0px"
   x="0px"
   version="1.1"
   sodipodi:docname="simacan-small.svg"
   inkscape:version="0.92.1 r"><sodipodi:namedview
     pagecolor="#ffffff"
     bordercolor="#666666"
     borderopacity="1"
     objecttolerance="10"
     gridtolerance="10"
     guidetolerance="10"
     inkscape:pageopacity="0"
     inkscape:pageshadow="2"
     inkscape:window-width="1890"
     inkscape:window-height="1025"
     id="namedview4547"
     showgrid="false"
     inkscape:pagecheckerboard="true"
     inkscape:zoom="15.596416"
     inkscape:cx="6.583237"
     inkscape:cy="7.9310889"
     inkscape:window-x="15"
     inkscape:window-y="40"
     inkscape:window-maximized="0"
     inkscape:current-layer="svg4795"
     fit-margin-top="0"
     fit-margin-left="0"
     fit-margin-right="0"
     fit-margin-bottom="0" /><metadata
     id="metadata4801"><rdf:RDF><cc:Work
         rdf:about=""><dc:format>image/svg+xml</dc:format><dc:type
           rdf:resource="http://purl.org/dc/dcmitype/StillImage" /><dc:title></dc:title></cc:Work></rdf:RDF></metadata><defs
     id="defs4799" /><style
     id="style4663"
     type="text/css">
	.st0{display:none;}
	.st1{display:inline;}
	.st2{fill:none;}
	.st3{fill:#50AE39;}
	.st4{fill:#FCC449;}
	.st5{fill:#EC682F;}
	.st6{fill:#0A516C;}
	.st7{fill:#FFFFFF;}
</style><g
     transform="translate(-301.15,-291.90641)"
     style="display:none"
     class="st0"
     id="Laag_1"><g
       style="display:inline"
       id="g4721"
       class="st1"><path
         style="fill:none"
         id="path4665"
         d="m 451.5,309.2 c 1.3,0 2.4,-0.3 3.5,-0.9 1.1,-0.6 2.2,-1.4 3.3,-2.5 v -7 c -2.1,0.3 -3.9,0.6 -5.3,1 -1.4,0.4 -2.6,0.9 -3.5,1.4 -0.9,0.5 -1.5,1.1 -1.9,1.8 -0.4,0.7 -0.6,1.4 -0.6,2.2 0,1.4 0.4,2.4 1.2,3 0.9,0.7 2,1 3.3,1 z"
         class="st2"
         inkscape:connector-curvature="0" /><path
         style="fill:none"
         id="path4667"
         d="m 510.3,309.2 c 1.3,0 2.4,-0.3 3.5,-0.9 1.1,-0.6 2.2,-1.4 3.3,-2.5 v -7 c -2.1,0.3 -3.9,0.6 -5.3,1 -1.4,0.4 -2.6,0.9 -3.5,1.4 -0.9,0.5 -1.5,1.1 -1.9,1.8 -0.4,0.7 -0.6,1.4 -0.6,2.2 0,1.4 0.4,2.4 1.2,3 0.9,0.7 2,1 3.3,1 z"
         class="st2"
         inkscape:connector-curvature="0" /><path
         style="fill:#50ae39"
         id="path4669"
         d="m 285.2,312.1 22.8,14.8 c 0.2,0.2 0.6,0.2 0.8,0 l 22.8,-14.8 c 0.2,-0.2 0.2,-0.6 0,-0.8 l -7.7,-3.5 -15.2,9.4 c -0.2,0.2 -0.6,0.2 -0.8,0 l -15.2,-9.4 -7.7,3.5 c 0,0.2 0,0.6 0.2,0.8 z"
         class="st3"
         inkscape:connector-curvature="0" /><path
         style="fill:#fcc449"
         id="path4671"
         d="m 324,307.8 7.7,-4.8 c 0.2,-0.2 0.2,-0.6 0,-0.8 l -7.9,-3.6 -8.6,5.1 z"
         class="st4"
         inkscape:connector-curvature="0" /><path
         style="fill:#fcc449"
         id="path4673"
         d="m 293.1,298.6 -7.9,3.6 c -0.2,0.2 -0.2,0.6 0,0.8 l 7.7,4.8 8.8,-4 z"
         class="st4"
         inkscape:connector-curvature="0" /><path
         style="fill:#50ae39"
         id="path4675"
         d="m 308.8,317.2 15.2,-9.4 -8.8,-4 -6.4,3.8 c -0.2,0.2 -0.6,0.2 -0.8,0 l -6.4,-3.8 -8.8,4 15.2,9.4 c 0.3,0.2 0.6,0.2 0.8,0 z"
         class="st3"
         inkscape:connector-curvature="0" /><path
         style="fill:#fcc449"
         id="path4677"
         d="m 308.8,317.2 15.2,-9.4 -8.8,-4 -6.4,3.8 c -0.2,0.2 -0.6,0.2 -0.8,0 l -6.4,-3.8 -8.8,4 15.2,9.4 c 0.3,0.2 0.6,0.2 0.8,0 z"
         class="st4"
         inkscape:connector-curvature="0" /><path
         style="fill:#ec682f"
         id="path4679"
         d="m 323.8,298.6 7.9,-4.7 c 0.2,-0.2 0.2,-0.6 0,-0.8 l -8.2,-3.8 -9,5 z"
         class="st5"
         inkscape:connector-curvature="0" /><path
         style="fill:#ec682f"
         id="path4681"
         d="m 293.4,289.4 -8.2,3.8 c -0.2,0.2 -0.2,0.6 0,0.8 l 7.9,4.7 9.4,-4.3 z"
         class="st5"
         inkscape:connector-curvature="0" /><path
         style="fill:#fcc449"
         id="path4683"
         d="m 308,300.9 c 0.2,-0.2 0.6,-0.2 0.8,0 l 6.4,2.9 8.6,-5.1 -9.4,-4.3 -5.6,3.1 c -0.2,0.2 -0.6,0.2 -0.8,0 l -5.6,-3.1 -9.4,4.3 8.6,5.1 z"
         class="st4"
         inkscape:connector-curvature="0" /><path
         style="fill:#ec682f"
         id="path4685"
         d="m 308,300.9 c 0.2,-0.2 0.6,-0.2 0.8,0 l 6.4,2.9 8.6,-5.1 -9.4,-4.3 -5.6,3.1 c -0.2,0.2 -0.6,0.2 -0.8,0 l -5.6,-3.1 -9.4,4.3 8.6,5.1 z"
         class="st5"
         inkscape:connector-curvature="0" /><path
         style="fill:#50ae39"
         id="path4687"
         d="m 308,300.9 -6.4,2.9 6.4,3.8 c 0.2,0.2 0.6,0.2 0.8,0 l 6.4,-3.8 -6.4,-2.9 c -0.2,-0.3 -0.5,-0.3 -0.8,0 z"
         class="st3"
         inkscape:connector-curvature="0" /><path
         style="fill:#fcc449"
         id="path4689"
         d="m 308,300.9 -6.4,2.9 6.4,3.8 c 0.2,0.2 0.6,0.2 0.8,0 l 6.4,-3.8 -6.4,-2.9 c -0.2,-0.3 -0.5,-0.3 -0.8,0 z"
         class="st4"
         inkscape:connector-curvature="0" /><path
         style="fill:#ec682f"
         id="path4691"
         d="m 308,300.9 -6.4,2.9 6.4,3.8 c 0.2,0.2 0.6,0.2 0.8,0 l 6.4,-3.8 -6.4,-2.9 c -0.2,-0.3 -0.5,-0.3 -0.8,0 z"
         class="st5"
         inkscape:connector-curvature="0" /><path
         style="fill:#0a516c"
         id="path4693"
         d="m 308.8,282.7 14.6,6.7 8.2,-4.5 c 0.2,-0.2 0.2,-0.6 0,-0.8 l -22.8,-9.9 c -0.2,-0.1 -0.6,-0.1 -0.8,0 l -22.8,9.9 c -0.2,0.2 -0.2,0.6 0,0.8 l 8.2,4.5 14.6,-6.7 c 0.3,-0.2 0.6,-0.2 0.8,0 z"
         class="st6"
         inkscape:connector-curvature="0" /><path
         style="fill:#ec682f"
         id="path4695"
         d="m 308,291.8 c 0.2,-0.2 0.6,-0.2 0.8,0 l 5.6,2.6 9,-5 -14.6,-6.7 c -0.2,-0.2 -0.6,-0.2 -0.8,0 l -14.6,6.7 9,5 z"
         class="st5"
         inkscape:connector-curvature="0" /><path
         style="fill:#0a516c"
         id="path4697"
         d="m 308,291.8 c 0.2,-0.2 0.6,-0.2 0.8,0 l 5.6,2.6 9,-5 -14.6,-6.7 c -0.2,-0.2 -0.6,-0.2 -0.8,0 l -14.6,6.7 9,5 z"
         class="st6"
         inkscape:connector-curvature="0" /><path
         style="fill:#fcc449"
         id="path4699"
         d="m 308,291.8 -5.6,2.6 5.6,3.1 c 0.2,0.2 0.6,0.2 0.8,0 l 5.6,-3.1 -5.6,-2.6 c -0.2,-0.2 -0.5,-0.2 -0.8,0 z"
         class="st4"
         inkscape:connector-curvature="0" /><path
         style="fill:#ec682f"
         id="path4701"
         d="m 308,291.8 -5.6,2.6 5.6,3.1 c 0.2,0.2 0.6,0.2 0.8,0 l 5.6,-3.1 -5.6,-2.6 c -0.2,-0.2 -0.5,-0.2 -0.8,0 z"
         class="st5"
         inkscape:connector-curvature="0" /><path
         style="fill:#0a516c"
         id="path4703"
         d="m 308,291.8 -5.6,2.6 5.6,3.1 c 0.2,0.2 0.6,0.2 0.8,0 l 5.6,-3.1 -5.6,-2.6 c -0.2,-0.2 -0.5,-0.2 -0.8,0 z"
         class="st6"
         inkscape:connector-curvature="0" /><path
         id="path4705"
         d="m 358.3,309.4 c -1.6,0 -3.1,-0.3 -4.5,-0.9 -1.4,-0.6 -2.8,-1.5 -4.2,-2.6 l -3.4,4.7 c 1.5,1.2 3.3,2.3 5.4,3.1 2.1,0.8 4.2,1.2 6.4,1.2 1.9,0 3.7,-0.3 5.2,-0.8 1.5,-0.5 2.8,-1.2 3.8,-2.1 1,-0.9 1.8,-1.9 2.3,-3 0.5,-1.2 0.8,-2.4 0.8,-3.8 0,-1.4 -0.3,-2.7 -0.8,-3.7 -0.5,-1 -1.2,-1.9 -2.1,-2.6 -0.9,-0.7 -1.8,-1.3 -2.9,-1.8 -1.1,-0.5 -2.1,-0.9 -3.2,-1.3 -0.8,-0.3 -1.7,-0.6 -2.4,-0.9 -0.8,-0.3 -1.5,-0.6 -2.1,-1 -0.6,-0.4 -1.1,-0.8 -1.4,-1.2 -0.4,-0.4 -0.5,-1 -0.5,-1.6 0,-1 0.4,-1.8 1.1,-2.4 0.7,-0.7 1.9,-1 3.5,-1 1.2,0 2.4,0.2 3.5,0.7 1.1,0.5 2.2,1.1 3.3,1.9 l 3.4,-4.4 c -1.3,-1 -2.8,-1.8 -4.5,-2.6 -1.7,-0.8 -3.7,-1.1 -5.8,-1.1 -3.5,0 -6.3,0.9 -8.3,2.6 -2,1.7 -3,4 -3,6.7 0,1.3 0.3,2.4 0.8,3.4 0.5,1 1.2,1.8 2,2.5 0.8,0.7 1.8,1.3 2.8,1.8 1.1,0.5 2.1,1 3.1,1.3 0.8,0.3 1.6,0.7 2.4,1 0.8,0.3 1.5,0.7 2.2,1 0.6,0.4 1.1,0.8 1.5,1.3 0.4,0.5 0.6,1 0.6,1.7 0,1.1 -0.4,2 -1.2,2.7 -0.8,0.9 -2.1,1.2 -3.8,1.2 z"
         inkscape:connector-curvature="0" /><rect
         id="rect4707"
         height="31.1"
         width="7.3000002"
         y="283"
         x="375.20001" /><path
         id="path4709"
         d="m 378.9,277.6 c 1.3,0 2.4,-0.4 3.2,-1.1 0.8,-0.8 1.3,-1.8 1.3,-3 0,-1.2 -0.4,-2.2 -1.3,-3 -0.8,-0.8 -1.9,-1.2 -3.2,-1.2 -1.3,0 -2.4,0.4 -3.2,1.2 -0.8,0.8 -1.3,1.8 -1.3,3 0,1.2 0.4,2.2 1.3,3 0.8,0.7 1.9,1.1 3.2,1.1 z"
         inkscape:connector-curvature="0" /><path
         id="path4711"
         d="m 397.6,292.4 c 2.4,-2.6 4.6,-3.9 6.5,-3.9 1.6,0 2.9,0.5 3.6,1.6 0.8,1.1 1.2,2.9 1.2,5.5 v 18.6 h 7.3 v -21.8 c 2.4,-2.6 4.6,-3.9 6.5,-3.9 1.6,0 2.8,0.5 3.6,1.6 0.8,1.1 1.2,2.9 1.2,5.5 v 18.6 h 7.4 v -19.5 c 0,-4 -0.8,-7 -2.3,-9.2 -1.6,-2.1 -4,-3.2 -7.3,-3.2 -2,0 -3.8,0.5 -5.4,1.6 -1.6,1.1 -3.2,2.4 -4.6,4 -0.7,-1.8 -1.8,-3.1 -3.1,-4.1 -1.4,-1 -3.2,-1.5 -5.5,-1.5 -1.9,0 -3.7,0.5 -5.2,1.5 -1.5,1 -3,2.2 -4.3,3.6 h -0.3 l -0.5,-4.2 h -6 v 31.1 h 7.3 v -21.9 z"
         inkscape:connector-curvature="0" /><path
         id="path4713"
         d="m 439.9,305.8 c 0,2.7 0.9,5 2.6,6.6 1.7,1.7 3.9,2.5 6.7,2.5 1.9,0 3.6,-0.4 5.2,-1.2 1.6,-0.8 3.1,-1.8 4.5,-3 h 0.2 l 0.6,3.4 h 6 v -18.5 c 0,-4.4 -1,-7.7 -2.9,-10 -1.9,-2.3 -4.8,-3.5 -8.8,-3.5 -2.5,0 -4.8,0.4 -6.9,1.2 -2.1,0.8 -4.1,1.8 -5.8,2.9 l 2.7,4.9 c 1.4,-0.8 2.8,-1.6 4.2,-2.2 1.5,-0.6 3,-0.9 4.5,-0.9 1.1,0 1.9,0.2 2.6,0.5 0.7,0.3 1.3,0.8 1.7,1.3 0.4,0.6 0.8,1.2 1,2 0.2,0.7 0.3,1.5 0.3,2.3 -6.4,0.7 -11,2 -14,3.8 -2.9,2 -4.4,4.5 -4.4,7.9 z m 7.7,-2.7 c 0.4,-0.7 1,-1.3 1.9,-1.8 0.9,-0.5 2,-1 3.5,-1.4 1.4,-0.4 3.2,-0.8 5.3,-1 v 7 c -1.1,1.1 -2.2,1.9 -3.3,2.5 -1.1,0.6 -2.2,0.9 -3.5,0.9 -1.3,0 -2.4,-0.3 -3.2,-1 -0.8,-0.6 -1.2,-1.6 -1.2,-3 -0.1,-0.8 0.1,-1.6 0.5,-2.2 z"
         inkscape:connector-curvature="0" /><path
         id="path4715"
         d="m 474.7,310.7 c 1.4,1.4 2.9,2.5 4.8,3.2 1.8,0.7 3.8,1.1 5.9,1.1 1.8,0 3.6,-0.3 5.3,-1 1.8,-0.7 3.4,-1.7 4.9,-3 l -3,-4.6 c -0.8,0.7 -1.8,1.3 -2.9,1.9 -1.1,0.5 -2.3,0.8 -3.5,0.8 -2.5,0 -4.5,-0.9 -6,-2.8 -1.5,-1.9 -2.3,-4.4 -2.3,-7.5 0,-3.2 0.8,-5.7 2.3,-7.6 1.6,-1.9 3.6,-2.8 6.2,-2.8 1,0 1.9,0.2 2.7,0.6 0.8,0.4 1.7,1 2.5,1.7 l 3.5,-4.6 c -1.1,-1 -2.3,-1.9 -3.8,-2.6 -1.5,-0.7 -3.3,-1 -5.3,-1 -2.1,0 -4,0.4 -5.9,1.1 -1.9,0.7 -3.5,1.8 -5,3.2 -1.4,1.4 -2.6,3.1 -3.4,5.1 -0.8,2 -1.3,4.3 -1.3,6.9 0,2.6 0.4,4.9 1.1,6.9 0.8,1.9 1.8,3.6 3.2,5 z"
         inkscape:connector-curvature="0" /><path
         id="path4717"
         d="m 498.7,305.8 c 0,2.7 0.9,5 2.6,6.6 1.7,1.7 3.9,2.5 6.7,2.5 1.9,0 3.6,-0.4 5.2,-1.2 1.6,-0.8 3.1,-1.8 4.5,-3 h 0.2 l 0.6,3.4 h 6 v -18.5 c 0,-4.4 -1,-7.7 -2.9,-10 -1.9,-2.3 -4.8,-3.5 -8.8,-3.5 -2.5,0 -4.8,0.4 -6.9,1.2 -2.1,0.8 -4.1,1.8 -5.8,2.9 l 2.7,4.9 c 1.4,-0.8 2.8,-1.6 4.2,-2.2 1.5,-0.6 3,-0.9 4.5,-0.9 1.1,0 1.9,0.2 2.6,0.5 0.7,0.3 1.3,0.8 1.7,1.3 0.4,0.6 0.8,1.2 1,2 0.2,0.7 0.3,1.5 0.3,2.3 -6.4,0.7 -11,2 -14,3.8 -2.9,2 -4.4,4.5 -4.4,7.9 z m 7.7,-2.7 c 0.4,-0.7 1,-1.3 1.9,-1.8 0.9,-0.5 2,-1 3.5,-1.4 1.4,-0.4 3.2,-0.8 5.3,-1 v 7 c -1.1,1.1 -2.2,1.9 -3.3,2.5 -1.1,0.6 -2.2,0.9 -3.5,0.9 -1.3,0 -2.4,-0.3 -3.2,-1 -0.8,-0.6 -1.2,-1.6 -1.2,-3 -0.1,-0.8 0.1,-1.6 0.5,-2.2 z"
         inkscape:connector-curvature="0" /><path
         id="path4719"
         d="m 538.5,292.4 c 1.3,-1.3 2.5,-2.2 3.5,-2.9 1,-0.7 2.2,-1 3.6,-1 1.7,0 3,0.5 3.7,1.6 0.8,1.1 1.1,2.9 1.1,5.5 v 18.6 h 7.3 v -19.5 c 0,-4 -0.8,-7 -2.3,-9.2 -1.5,-2.1 -4,-3.2 -7.3,-3.2 -2.2,0 -4,0.5 -5.7,1.5 -1.6,1 -3.1,2.1 -4.5,3.5 h -0.3 l -0.5,-4.2 h -6 v 31.1 h 7.3 v -21.8 z"
         inkscape:connector-curvature="0" /></g></g><rect
     y="-72.606407"
     class="st0"
     width="669.90002"
     height="182.10001"
     id="rect4724"
     x="-301.14999"
     style="display:none" /><polygon
     transform="matrix(0.2991453,0,0,0.2991453,-85.181624,-81.763889)"
     class="st7"
     points="285,292.4 293.2,288.7 "
     id="polygon4726"
     style="fill:#ffffff;fill-opacity:1" /><polygon
     transform="matrix(0.2991453,0,0,0.2991453,-85.181624,-81.763889)"
     class="st7"
     points="285,302.3 292.7,307 "
     id="polygon4728"
     style="fill:#ffffff;fill-opacity:1" /><polygon
     transform="matrix(0.2991453,0,0,0.2991453,-85.181624,-81.763889)"
     class="st7"
     points="331.4,292.4 323.2,288.7 "
     id="polygon4730"
     style="fill:#ffffff;fill-opacity:1" /><polygon
     transform="matrix(0.2991453,0,0,0.2991453,-85.181624,-81.763889)"
     class="st7"
     points="292.8,297.9 285,301.5 292.8,297.9 285,293.2 "
     id="polygon4732"
     style="fill:#ffffff;fill-opacity:1" /><polygon
     transform="matrix(0.2991453,0,0,0.2991453,-85.181624,-81.763889)"
     class="st7"
     points="323.8,307 331.4,302.3 323.8,307 331.4,310.6 "
     id="polygon4734"
     style="fill:#ffffff;fill-opacity:1" /><polygon
     transform="matrix(0.2991453,0,0,0.2991453,-85.181624,-81.763889)"
     class="st7"
     points="285,310.6 292.7,307 "
     id="polygon4752"
     style="fill:#ffffff;fill-opacity:1" /><polygon
     transform="matrix(0.2991453,0,0,0.2991453,-85.181624,-81.763889)"
     class="st7"
     points="285,310.6 292.7,307 "
     id="polygon4754"
     style="fill:#ffffff;fill-opacity:1" /><polygon
     transform="matrix(0.2991453,0,0,0.2991453,-85.181624,-81.763889)"
     class="st7"
     points="331.4,301.5 323.6,297.9 "
     id="polygon4756"
     style="fill:#ffffff;fill-opacity:1" /><polygon
     transform="matrix(0.2991453,0,0,0.2991453,-85.181624,-81.763889)"
     class="st7"
     points="331.4,301.5 323.6,297.9 "
     id="polygon4758"
     style="fill:#ffffff;fill-opacity:1" /><polygon
     transform="matrix(0.2991453,0,0,0.2991453,-85.181624,-81.763889)"
     class="st7"
     points="331.4,293.2 323.6,297.9 "
     id="polygon4760"
     style="fill:#ffffff;fill-opacity:1" /><polygon
     transform="matrix(0.2991453,0,0,0.2991453,-85.181624,-81.763889)"
     class="st7"
     points="331.4,293.2 323.6,297.9 "
     id="polygon4762"
     style="fill:#ffffff;fill-opacity:1" /><rect
     x="11.621797"
     y="7.3514934"
     class="st7"
     width="0"
     height="0"
     id="rect4764"
     style="fill:#ffffff;fill-opacity:1;stroke-width:0.29914531" /><rect
     x="11.621797"
     y="7.3514934"
     class="st7"
     width="0"
     height="0"
     id="rect4766"
     style="fill:#ffffff;fill-opacity:1;stroke-width:0.29914531" /><rect
     x="11.621797"
     y="7.3514934"
     class="st7"
     width="0"
     height="0"
     id="rect4768"
     style="fill:#ffffff;fill-opacity:1;stroke-width:0.29914531" /><polygon
     transform="matrix(0.2991453,0,0,0.2991453,-85.181624,-81.763889)"
     class="st7"
     points="323.2,288.7 331.4,284.1 "
     id="polygon4770"
     style="fill:#ffffff;fill-opacity:1" /><polygon
     transform="matrix(0.2991453,0,0,0.2991453,-85.181624,-81.763889)"
     class="st7"
     points="323.2,288.7 331.4,284.1 "
     id="polygon4772"
     style="fill:#ffffff;fill-opacity:1" /><polygon
     transform="matrix(0.2991453,0,0,0.2991453,-85.181624,-81.763889)"
     class="st7"
     points="285,284.1 293.2,288.7 "
     id="polygon4774"
     style="fill:#ffffff;fill-opacity:1" /><polygon
     transform="matrix(0.2991453,0,0,0.2991453,-85.181624,-81.763889)"
     class="st7"
     points="285,284.1 293.2,288.7 "
     id="polygon4776"
     style="fill:#ffffff;fill-opacity:1" /><g
     transform="matrix(0.2991453,0,0,0.2991453,-85.181624,-81.763889)"
     style="fill:#ffffff;fill-opacity:1"
     id="g4792"><path
       class="st7"
       d="m 308.6,318.5 c -0.2,0.2 -0.6,0.2 -0.8,0 l -15.2,-9.4 -1.9,-1.2 -5.8,2.7 c -0.2,0.2 -0.2,0.6 0,0.8 l 22.8,14.8 c 0.2,0.2 0.6,0.2 0.8,0 l 22.8,-14.8 c 0.2,-0.2 0.2,-0.6 0,-0.8 l -5.8,-2.7 -1.9,1.2 z"
       id="path4778"
       style="fill:#ffffff;fill-opacity:1"
       inkscape:connector-curvature="0" /><path
       class="st7"
       d="m 308.6,275.4 21.6,9.4 1,-0.6 0.2,-0.1 c 0.2,-0.2 0.2,-0.6 0,-0.8 l -22.8,-9.9 c -0.2,-0.1 -0.6,-0.1 -0.8,0 l -22.8,9.9 c -0.2,0.2 -0.2,0.6 0,0.8 l 0.2,0.1 1,0.6 21.6,-9.4 c 0.2,-0.1 0.6,-0.1 0.8,0 z"
       id="path4780"
       style="fill:#ffffff;fill-opacity:1"
       inkscape:connector-curvature="0" /><path
       class="st7"
       d="m 323.2,290.7 v 0 l -9,5 -5.6,3.1 c -0.2,0.2 -0.6,0.2 -0.8,0 l -5.6,-3.1 -9,-5 v 0 0 l -2,-1.1 -6.3,2.9 c -0.2,0.2 -0.2,0.6 0,0.8 l 0.2,0.1 0.9,0.6 6.1,-2.8 1,0.5 v 0 0 l 9,5 5.6,3.1 c 0.2,0.2 0.6,0.2 0.8,0 l 5.6,-3.1 9,-5 v 0 0 l 1,-0.5 6.1,2.8 0.9,-0.6 0.2,-0.1 c 0.2,-0.2 0.2,-0.6 0,-0.8 l -6.3,-2.9 z"
       id="path4782"
       style="fill:#ffffff;fill-opacity:1"
       inkscape:connector-curvature="0" /><path
       class="st7"
       d="m 323.6,299.9 v 0 l -8.6,5.1 -0.9,0.6 -5.5,3.3 c -0.2,0.2 -0.6,0.2 -0.8,0 l -5.6,-3.3 -0.8,-0.5 -8.6,-5.1 -1.9,-1.1 -6,2.7 c -0.2,0.2 -0.2,0.6 0,0.8 l 0.2,0.1 0.9,0.6 5.8,-2.6 0.9,0.6 8.6,5.1 0.8,0.5 5.6,3.3 c 0.2,0.2 0.6,0.2 0.8,0 l 5.5,-3.3 0.9,-0.6 8.6,-5.1 v 0 0 l 0.9,-0.6 5.8,2.6 0.9,-0.6 0.2,-0.1 c 0.2,-0.2 0.2,-0.6 0,-0.8 l -6,-2.7 z"
       id="path4784"
       style="fill:#ffffff;fill-opacity:1"
       inkscape:connector-curvature="0" /><path
       class="st7"
       d="m 293.2,288.7 v 0 l 9,5 5.6,3.1 c 0.2,0.2 0.6,0.2 0.8,0 l 5.6,-3.1 9,-5 v 0 0 l 7,-3.9 -21.6,-9.4 c -0.2,-0.1 -0.6,-0.1 -0.8,0 l -21.6,9.4 z"
       id="path4786"
       style="fill:#ffffff;fill-opacity:1"
       inkscape:connector-curvature="0" /><path
       class="st7"
       d="m 323.2,291.7 v 0 0 l -9,5 -5.6,3.1 c -0.2,0.2 -0.6,0.2 -0.8,0 l -5.6,-3.1 -9,-5 v 0 0 l -1,-0.5 -6.1,2.8 6.7,4 8.6,5.1 0.8,0.5 5.6,3.3 c 0.2,0.2 0.6,0.2 0.8,0 l 5.5,-3.3 0.9,-0.6 8.6,-5.1 v 0 0 l 6.7,-4 -6.1,-2.8 z"
       id="path4788"
       style="fill:#ffffff;fill-opacity:1"
       inkscape:connector-curvature="0" /><path
       class="st7"
       d="m 323.6,300.9 v 0 0 l -8.6,5.1 -0.9,0.6 -5.5,3.3 c -0.2,0.2 -0.6,0.2 -0.8,0 l -5.6,-3.3 -0.8,-0.5 -8.6,-5.1 -0.9,-0.6 -5.8,2.6 6.5,4.1 15.2,9.4 c 0.2,0.2 0.6,0.2 0.8,0 l 15.2,-9.4 6.5,-4.1 -5.8,-2.6 z"
       id="path4790"
       style="fill:#ffffff;fill-opacity:1"
       inkscape:connector-curvature="0" /></g><g
     transform="matrix(0.2991453,0,0,0.2991453,-85.181624,-81.763889)"
     id="layer1"
     style="fill:#ffffff;fill-opacity:1" /></svg>